# xmcd
#
# Track frame offsets:
#	150
#	19631
#	38860
#	54485
#	75860
#	92407
#	113019
#	130744
#	150747
#	172017
#	196938
#	217366
#	238578
#	259401
#
# Disc length: 3747 seconds
#
# Revision: 0
# Processed by: cddbd v1.5.2PL0 Copyright (c) Steve Scherf et al.
# Submitted via: EasyCDDAExtractor 11.0.3.1
#
DISCID=b40ea10e
DTITLE=Various Artist - Adult Contemporary Hits Vol. 5
DYEAR=1900
DGENRE=
TTITLE0=Michael Bolton - The Best Of Love
TTITLE1=Peter Cetera w/ AZ Yet - You're The Inspiration
TTITLE2=Shawn Colvin - You And The Mona Lisa
TTITLE3=Chicago - The Only One
TTITLE4=K. D. Lang - Theme From The Valley Of The Dolls
TTITLE5=Gary Barlow - So Help Me Girl
TTITLE6=Paul McCartney - Young Boy
TTITLE7=Natalie Cole - A Smile Like Yours
TTITLE8=Dave Koz - That's The Way I Feel About You
TTITLE9=Don Diego - Top Of The World
TTITLE10=Billie Myers - Kiss The Rain
TTITLE11=Ambrosia - I Just Can't Let Go
TTITLE12=Carly Simon - Ev'ry Time We Say Goodbye
TTITLE13=Jackson Browne - The Next Voice You Hear
EXTD=
EXTT0=
EXTT1=
EXTT2=
EXTT3=
EXTT4=
EXTT5=
EXTT6=
EXTT7=
EXTT8=
EXTT9=
EXTT10=
EXTT11=
EXTT12=
EXTT13=
PLAYORDER=
